<svg data-rs="header" xmlns="http://www.w3.org/2000/svg" xmlns:xlink="http://www.w3.org/1999/xlink" height="300px" width="300px" fill="#1A1A1A" version="1.1" x="0px" y="0px" viewBox="0 0 64 64" style="enable-background:new 0 0 64 64;" xml:space="preserve"><path d="M54.4,47.2c-1-1.7-2.3-3.6-3.9-5.5l-0.2-0.2c-0.8-0.9-1.7-2-2.9-2.7c-1.5-0.9-3.8-1.2-5.4-0.2l-3.2,2.2  c-0.7,0.5-1.4,0.5-2.6-0.6c-2.7-2.5-5.2-5.3-7.5-8.3c-0.1-0.2-0.3-0.4-0.5-0.7c-0.7-0.8-1.9-2.2-2.8-3.6C24,25.9,24,25.2,24,25.1  c0.1-0.1,0.1-0.1,0.2-0.2c0,0,0.1-0.1,0.1-0.1c0.2-0.2,0.5-0.5,0.7-0.7l2.7-2.7c1.4-1.4,1.4-3.7,0.9-5.3c-0.4-1.3-1.3-2.4-2-3.3  l-0.1-0.2c-1.6-2-3.1-3.6-4.7-4.9l0,0c-1-0.9-2.6-2-4.6-2.2C16,5.3,14.9,5.6,14,6.3c-0.6,0.4-1.1,0.9-1.6,1.5  c-1.6,1.8-2.9,4.1-3.5,6.4c-0.5,1.7-0.6,3.6-0.4,5.6c0.4,4.9,2.6,9,4.8,12.8c2.8,4.7,5.7,8.7,8.7,12.1C28.3,52,34.1,56.3,39.8,58  c1.6,0.5,3.2,0.7,4.7,0.7c0.3,0,0.6,0,0.9,0c2.4-0.1,4.9-0.9,7-2.2c0.6-0.4,1.2-0.8,1.7-1.3c0.9-0.8,1.4-1.8,1.6-3  C55.8,50.2,55,48.4,54.4,47.2z M53.7,51.9c-0.1,0.7-0.4,1.3-0.9,1.7c-0.4,0.4-0.9,0.7-1.5,1.1c-1.8,1.1-4,1.8-6.1,1.9  c-1.6,0.1-3.2-0.1-4.9-0.6c-5.3-1.5-10.8-5.7-16.9-12.7c-3-3.4-5.7-7.3-8.5-11.9c-2.1-3.5-4.1-7.4-4.5-12c-0.2-1.7,0-3.4,0.4-4.9  c0.5-2,1.6-4.1,3.1-5.6c0.4-0.5,0.9-0.9,1.3-1.2c0.5-0.4,1-0.6,1.6-0.6c0.1,0,0.2,0,0.2,0c1.4,0.1,2.6,1.1,3.5,1.7  c1.4,1.2,2.9,2.8,4.4,4.6l0.1,0.2c0.7,0.9,1.4,1.8,1.7,2.7c0.4,1.1,0.3,2.6-0.4,3.3l-2.7,2.7c-0.2,0.2-0.5,0.5-0.7,0.7  c0,0-0.1,0.1-0.1,0.1c-0.1,0.1-0.1,0.1-0.2,0.2c-0.4,0.4-0.8,1.1-0.4,2.4c0.2,0.7,0.6,1.4,1.2,2.4c1,1.6,2.4,3.2,3.2,4.1  c0.2,0.3,0.4,0.5,0.5,0.6c2.4,3,5,5.9,7.7,8.5c0.8,0.7,1.5,1.2,2.2,1.3c1,0.2,1.9,0.1,2.8-0.5l3.2-2.2c0.9-0.6,2.3-0.3,3.4,0.2  c0.9,0.5,1.6,1.4,2.3,2.2l0.2,0.2l0,0c1.6,1.8,2.8,3.6,3.7,5.2C53.2,49.1,53.8,50.6,53.7,51.9z"/></svg>
